<svg xmlns="http://www.w3.org/2000/svg" viewBox="0 0 600 1204.2">
  <path fill="#d8432e" fill-rule="nonzero" d="M 593.706,462.245 c -5.082,-133.608 -16.576,-184.343 -24.192,-184.343 -7.731,0 -10.163,74.004 -20.322,139.400 -10.163,65.245 -28.057,139.237 -28.057,139.237 l -45.731,-17.420 c 0,0 -12.820,-94.412 -17.898,-207.555 -4.963,-113.147 -8.833,-211.963 -22.980,-211.963 -13.804,-0.118 -16.453,92.906 -21.535,213.453 -5.086,120.478 -22.861,187.204 -22.861,187.204 l -41.971,-5.849 c 0,0 -20.327,-104.498 -27.951,-423.702 -1.767,-75.547 -20.208,-90.706 -20.208,-90.706 0,0 -18.449,15.159 -20.216,90.706 -7.616,319.204 -28.057,423.702 -28.057,423.702 l -41.865,5.849 c 0,0 -17.886,-66.727 -22.967,-187.204 -5.082,-120.547 -7.629,-213.571 -21.535,-213.453 -14.033,0 -17.902,98.816 -23.098,211.963 -4.963,113.143 -17.673,207.555 -17.673,207.555 l -45.731,17.420 c 0,0 -17.886,-73.992 -28.049,-139.237 -10.159,-65.396 -12.706,-139.400 -20.322,-139.400 -7.624,0 -19.106,50.735 -24.192,184.343 -5.082,133.441 -6.294,159.527 -6.294,159.527 0,0 150.110,63.959 208.543,229.482 58.543,165.424 73.343,309.061 73.784,325.008 0.767,24.751 17.673,27.902 17.673,27.902 0,0 14.694,-3.151 17.673,-27.902 1.873,-15.833 15.241,-159.584 73.776,-325.008 58.441,-165.522 208.551,-229.482 208.551,-229.482 0,0 -1.220,-26.086 -6.294,-159.527 z"/>
</svg>
